# xmcd CD database file
#
# Track frame offsets:
#	150
#	34200
#	68100
#	103800
#	130275
#	152250
#	174300
#	199500
#	229035
#	261941
#
# Disc length: 3826 seconds
#
# Revision: 0
# Processed by: cddbd v1.5.2PL0 Copyright (c) Steve Scherf et al.
# Submitted via: CDex 1.70beta2
#
DISCID=7f0ef00a
DTITLE=Andreas Gidlund Kvartett - Mandraki Beach
DYEAR=2003
DGENRE=Jazz
TTITLE0=Tryffel
TTITLE1=A Pillow for Two
TTITLE2=Så kan det gå när man inte går och lägger sig i tid
TTITLE3=Night and Day
TTITLE4=I've seen
TTITLE5=Skåne T&R
TTITLE6=Doing the Wooppidoo
TTITLE7=Durban Boy
TTITLE8=Basement Boulevard
TTITLE9=Ingenting
EXTD=YEAR: 2003
EXTT0=
EXTT1=
EXTT2=
EXTT3=
EXTT4=
EXTT5=
EXTT6=
EXTT7=
EXTT8=
EXTT9=
PLAYORDER=
